<?xml version="1.0" encoding="utf-8"?>
<!-- Generator: Adobe Illustrator 16.0.0, SVG Export Plug-In . SVG Version: 6.00 Build 0)  -->
<!DOCTYPE svg PUBLIC "-//W3C//DTD SVG 1.1//EN" "http://www.w3.org/Graphics/SVG/1.1/DTD/svg11.dtd">
<svg version="1.1" id="Layer_1" xmlns="http://www.w3.org/2000/svg" xmlns:xlink="http://www.w3.org/1999/xlink" x="0px" y="0px"
	 width="1000px" height="500px" viewBox="0 0 1000 500" enable-background="new 0 0 1000 500" xml:space="preserve">
<path fill-rule="evenodd" clip-rule="evenodd" fill="#FFFFFF" d="M916,29c21.331,0,42.669,0,64,0c0,67.66,0,135.34,0,203
	c0.002,46.409,1.043,92.917-12,126c0,1,0,2,0,3c-0.333,0-0.667,0-1,0c0,1,0,2,0,3c-0.333,0-0.667,0-1,0c0,1,0,2,0,3
	c-0.333,0-0.667,0-1,0c0,1,0,2,0,3c-16.873,38.446-43.763,67.994-82,85c-1,0-2,0-3,0c0,0.333,0,0.667,0,1c-0.667,0-1.333,0-2,0
	c0,0.333,0,0.667,0,1c-2,0.333-4,0.667-6,1c0,0.333,0,0.667,0,1c-0.667,0-1.333,0-2,0c0,0.333,0,0.667,0,1c-1.333,0-2.667,0-4,0
	c0,0.333,0,0.667,0,1c-1,0-2,0-3,0c0,0.333,0,0.667,0,1c-1,0-2,0-3,0c0,0.333,0,0.667,0,1c-1.333,0-2.667,0-4,0c0,0.333,0,0.667,0,1
	c-1.333,0-2.667,0-4,0c0,0.333,0,0.667,0,1c-1.667,0-3.333,0-5,0c0,0.333,0,0.667,0,1c-1.667,0-3.333,0-5,0c0,0.333,0,0.667,0,1
	c-2.333,0-4.667,0-7,0c-13.729,3.917-32.56,3.11-50,3c-11.879-0.075-26.439-2.05-36-5c-3-0.333-6-0.667-9-1c0-0.333,0-0.667,0-1
	c-4.666-1-9.334-2-14-3c0-0.333,0-0.667,0-1c-2-0.333-4-0.667-6-1c0-0.333,0-0.667,0-1c-0.667,0-1.333,0-2,0c0-0.333,0-0.667,0-1
	c-1,0-2,0-3,0c0-0.333,0-0.667,0-1c-0.667,0-1.333,0-2,0c0-0.333,0-0.667,0-1c-1,0-2,0-3,0c0-0.333,0-0.667,0-1
	c-2-0.667-4-1.333-6-2c0-0.333,0-0.667,0-1c-0.667,0-1.333,0-2,0c0-0.333,0-0.667,0-1c-1.333-0.333-2.667-0.667-4-1
	c-0.333-0.667-0.667-1.333-1-2c-1.333-0.333-2.667-0.667-4-1c-0.333-0.667-0.667-1.333-1-2c-1.333-0.333-2.667-0.667-4-1
	c-0.667-1-1.333-2-2-3c-0.667,0-1.333,0-2,0c-0.333-0.667-0.667-1.333-1-2c-0.667,0-1.333,0-2,0c-0.667-1-1.333-2-2-3
	c-1-0.333-2-0.667-3-1c-1.667-2-3.333-4-5-6c-0.667,0-1.333,0-2,0c-0.333-0.667-0.667-1.333-1-2c-2.333-2-4.667-4-7-6
	c0-0.667,0-1.333,0-2c-2-1.667-4-3.333-6-5c-0.333-1-0.667-2-1-3c-1-0.667-2-1.333-3-2c0-0.667,0-1.333,0-2
	c-0.667-0.333-1.333-0.667-2-1c0-0.667,0-1.333,0-2c-0.667-0.333-1.333-0.667-2-1c0-0.667,0-1.333,0-2c-0.667-0.333-1.333-0.667-2-1
	c0-0.667,0-1.333,0-2c-0.667-0.333-1.333-0.667-2-1c-0.333-1.333-0.667-2.667-1-4c-0.667-0.333-1.333-0.667-2-1
	c-0.667-2-1.333-4-2-6c-0.333,0-0.667,0-1,0c0-0.667,0-1.333,0-2c-0.333,0-0.667,0-1,0c-0.667-2-1.333-4-2-6c-0.333,0-0.667,0-1,0
	c0-1,0-2,0-3c-0.333,0-0.667,0-1,0c0-0.667,0-1.333,0-2c-0.333,0-0.667,0-1,0c-0.333-1.667-0.667-3.333-1-5c-0.333,0-0.667,0-1,0
	c-2.667-9.333-5.333-18.667-8-28c0-1.667,0-3.333,0-5c-0.333,0-0.667,0-1,0c0-2,0-4,0-6c-0.333,0-0.667,0-1,0c0-2,0-4,0-6
	c-0.333,0-0.667,0-1,0c-0.333-6.666-0.667-13.334-1-20c-1.958-6.926-1-18.389-1-27c0-17.332,0-34.668,0-52c0-9.999,0-20.001,0-30
	c-0.333,0-0.667,0-1,0c0-3,0-6,0-9c-0.333,0-0.667,0-1,0c0-2,0-4,0-6c-0.333,0-0.667,0-1,0c0-2,0-4,0-6c-0.333,0-0.667,0-1,0
	c0-1.333,0-2.667,0-4c-0.333,0-0.667,0-1,0c0-1.333,0-2.667,0-4c-0.333,0-0.667,0-1,0c0-1.333,0-2.667,0-4
	c-3.333-7.999-6.667-16.001-10-24c-0.333,0-0.667,0-1,0c-0.333-1-0.667-2-1-3c-0.667-0.333-1.333-0.667-2-1c0-0.667,0-1.333,0-2
	c-0.667-0.333-1.333-0.667-2-1c0-0.667,0-1.333,0-2c-1-0.667-2-1.333-3-2c0-0.667,0-1.333,0-2c-1-0.667-2-1.333-3-2
	c-2-2.333-4-4.667-6-7c-0.667,0-1.333,0-2,0c-1-1.333-2-2.667-3-4c-0.667,0-1.333,0-2,0c-0.333-0.667-0.667-1.333-1-2
	c-0.667,0-1.333,0-2,0c-0.333-0.667-0.667-1.333-1-2c-2-0.667-4-1.333-6-2c-0.333-0.667-0.667-1.333-1-2c-1,0-2,0-3,0
	c0-0.333,0-0.667,0-1c-0.667,0-1.333,0-2,0c0-0.333,0-0.667,0-1c-1.333-0.333-2.667-0.667-4-1c0-0.333,0-0.667,0-1
	c-4.333-1-8.667-2-13-3c0-0.333,0-0.667,0-1c-1.333,0-2.667,0-4,0c0-0.333,0-0.667,0-1c-1.667,0-3.333,0-5,0c0-0.333,0-0.667,0-1
	c-1.667,0-3.333,0-5,0c0-0.333,0-0.667,0-1c-2.667,0-5.333,0-8,0c0-0.333,0-0.667,0-1c-5,0-10,0-15,0c0-0.333,0-0.667,0-1
	c-5,0-10,0-15,0c0,0.333,0,0.667,0,1c-5,0-10,0-15,0c0,0.333,0,0.667,0,1c-2.333,0-4.667,0-7,0c0,0.333,0,0.667,0,1c-2,0-4,0-6,0
	c0,0.333,0,0.667,0,1c-1.667,0-3.333,0-5,0c0,0.333,0,0.667,0,1c-1.333,0-2.667,0-4,0c0,0.333,0,0.667,0,1c-1.333,0-2.667,0-4,0
	c0,0.333,0,0.667,0,1c-1,0-2,0-3,0c0,0.333,0,0.667,0,1c-1,0-2,0-3,0c0,0.333,0,0.667,0,1c-1,0-2,0-3,0c0,0.333,0,0.667,0,1
	c-2,0.667-4,1.333-6,2c0,0.333,0,0.667,0,1c-0.667,0-1.333,0-2,0c0,0.333,0,0.667,0,1c-0.667,0-1.333,0-2,0c0,0.333,0,0.667,0,1
	c-2,0.667-4,1.333-6,2c-0.333,0.667-0.667,1.333-1,2c-0.667,0-1.333,0-2,0c-0.333,0.667-0.667,1.333-1,2c-0.667,0-1.333,0-2,0
	c-1,1.333-2,2.667-3,4c-0.667,0-1.333,0-2,0c-1.667,2-3.333,4-5,6c-0.667,0.333-1.333,0.667-2,1c0,0.667,0,1.333,0,2
	c-1.333,1-2.667,2-4,3c0,0.667,0,1.333,0,2c-1,0.667-2,1.333-3,2c-0.333,1.333-0.667,2.667-1,4c-0.667,0.333-1.333,0.667-2,1
	c-0.333,1.333-0.667,2.667-1,4c-0.333,0-0.667,0-1,0c0,0.667,0,1.333,0,2c-0.333,0-0.667,0-1,0c-0.667,2-1.333,4-2,6
	c-0.333,0-0.667,0-1,0c-0.333,2-0.667,4-1,6c-11.542,26.992-10,67.18-10,106c0,70.66,0,141.34,0,212c-20.998,0-42.002,0-63,0
	c0-65.993,0-132.007,0-198c0.002-45.767,2.201-95.208-12-127c-0.333,0-0.667,0-1,0c-0.667-2-1.333-4-2-6c-0.333,0-0.667,0-1,0
	c-0.333-1.333-0.667-2.667-1-4c-0.667-0.333-1.333-0.667-2-1c-0.333-1.333-0.667-2.667-1-4c-1-0.667-2-1.333-3-2
	c0-0.667,0-1.333,0-2c-1-0.667-2-1.333-3-2c0-0.667,0-1.333,0-2c-2.333-2-4.667-4-7-6c-1-1.333-2-2.667-3-4c-0.667,0-1.333,0-2,0
	c-0.667-1-1.333-2-2-3c-0.667,0-1.333,0-2,0c-0.333-0.667-0.667-1.333-1-2c-0.667,0-1.333,0-2,0c-16.545-10.943-35.958-17.361-63-18
	c-5.174-0.122-12.726-2.763-19-1c0,0.333,0,0.667,0,1c-5,0-10,0-15,0c0,0.333,0,0.667,0,1c-2.333,0-4.667,0-7,0c0,0.333,0,0.667,0,1
	c-2,0-4,0-6,0c0,0.333,0,0.667,0,1c-1.667,0-3.333,0-5,0c-20.929,6.636-39.463,13.944-51,30c-1.333,1-2.667,2-4,3
	c0,0.667,0,1.333,0,2c-0.667,0.333-1.333,0.667-2,1c-0.333,1-0.667,2-1,3c-0.333,0-0.667,0-1,0c0,0.667,0,1.333,0,2
	c-0.667,0.333-1.333,0.667-2,1c-0.333,1.333-0.667,2.667-1,4c-0.333,0-0.667,0-1,0c-0.667,2-1.333,4-2,6c-0.333,0-0.667,0-1,0
	c0,1,0,2,0,3c-0.333,0-0.667,0-1,0c0,0.667,0,1.333,0,2c-0.333,0-0.667,0-1,0c0,1,0,2,0,3c-0.333,0-0.667,0-1,0c0,1,0,2,0,3
	c-0.333,0-0.667,0-1,0c0,1,0,2,0,3c-0.333,0-0.667,0-1,0c0,1,0,2,0,3c-0.333,0-0.667,0-1,0c-0.667,4.666-1.333,9.334-2,14
	c-6.618,21.87-4,59.108-4,87c0,69.326,0,138.674,0,208c-20.998,0-42.002,0-63,0c0-66.327,0-132.673,0-199c0-15.665,0-31.335,0-47
	c0-8.025-0.791-18.633,1-25c0-3,0-6,0-9c0.667-6,1.333-12,2-18c0.333,0,0.667,0,1,0c0-1.667,0-3.333,0-5c0.333,0,0.667,0,1,0
	c0-1.667,0-3.333,0-5c0.333,0,0.667,0,1,0c0-1.667,0-3.333,0-5c0.333,0,0.667,0,1,0c0-1.333,0-2.667,0-4c0.333,0,0.667,0,1,0
	c0-1.333,0-2.667,0-4c0.333,0,0.667,0,1,0c0-1,0-2,0-3c0.333,0,0.667,0,1,0c0-1,0-2,0-3c0.333,0,0.667,0,1,0
	c0.333-2.333,0.667-4.667,1-7c0.333,0,0.667,0,1,0c0-0.667,0-1.333,0-2c0.333,0,0.667,0,1,0c0.333-2,0.667-4,1-6
	c0.333,0,0.667,0,1,0c0.333-1.333,0.667-2.667,1-4c0.333,0,0.667,0,1,0c0-1,0-2,0-3c0.333,0,0.667,0,1,0c0.667-2,1.333-4,2-6
	c0.333,0,0.667,0,1,0c0.333-1.333,0.667-2.667,1-4c0.667-0.333,1.333-0.667,2-1c0.667-2,1.333-4,2-6c0.333,0,0.667,0,1,0
	c0.333-1,0.667-2,1-3c0.667-0.333,1.333-0.667,2-1c0-0.667,0-1.333,0-2c0.667-0.333,1.333-0.667,2-1c0-0.667,0-1.333,0-2
	c1-0.667,2-1.333,3-2c0-0.667,0-1.333,0-2c1-0.667,2-1.333,3-2c0-0.667,0-1.333,0-2c2.667-2.333,5.333-4.667,8-7
	c0-0.667,0-1.333,0-2c0.667-0.333,1.333-0.667,2-1c1-1.333,2-2.667,3-4c0.667,0,1.333,0,2,0c2-2.333,4-4.667,6-7
	c0.667,0,1.333,0,2,0c1-1.333,2-2.667,3-4c0.667,0,1.333,0,2,0c0.333-0.667,0.667-1.333,1-2c0.667,0,1.333,0,2,0
	c0.333-0.667,0.667-1.333,1-2c0.667,0,1.333,0,2,0c0.333-0.667,0.667-1.333,1-2c0.667,0,1.333,0,2,0c0.333-0.667,0.667-1.333,1-2
	c1.333-0.333,2.667-0.667,4-1c0.333-0.667,0.667-1.333,1-2c2-0.667,4-1.333,6-2c0-0.333,0-0.667,0-1c2-0.667,4-1.333,6-2
	c0-0.333,0-0.667,0-1c1,0,2,0,3,0c0-0.333,0-0.667,0-1c0.667,0,1.333,0,2,0c0-0.333,0-0.667,0-1c1,0,2,0,3,0c0-0.333,0-0.667,0-1
	c0.667,0,1.333,0,2,0c0-0.333,0-0.667,0-1c1,0,2,0,3,0c0-0.333,0-0.667,0-1c1,0,2,0,3,0c0-0.333,0-0.667,0-1c1,0,2,0,3,0
	c0-0.333,0-0.667,0-1c1,0,2,0,3,0c0-0.333,0-0.667,0-1c4-0.667,8-1.333,12-2c0-0.333,0-0.667,0-1c1.667,0,3.333,0,5,0
	c0-0.333,0-0.667,0-1c1.667,0,3.333,0,5,0c0-0.333,0-0.667,0-1c2,0,4,0,6,0c0-0.333,0-0.667,0-1c2.667,0,5.333,0,8,0
	c0-0.333,0-0.667,0-1c3.666,0,7.334,0,11,0c10.026-2.776,39.992-1.557,49,1c4.666,0.333,9.334,0.667,14,1
	c10.332,2.667,20.668,5.333,31,8c0,0.333,0,0.667,0,1c0.667,0,1.333,0,2,0c0,0.333,0,0.667,0,1c1,0,2,0,3,0c0,0.333,0,0.667,0,1
	c0.667,0,1.333,0,2,0c0,0.333,0,0.667,0,1c1,0,2,0,3,0c0,0.333,0,0.667,0,1c1.333,0.333,2.667,0.667,4,1c0,0.333,0,0.667,0,1
	c1,0,2,0,3,0c0,0.333,0,0.667,0,1c0.667,0,1.333,0,2,0c0,0.333,0,0.667,0,1c0.667,0,1.333,0,2,0c0.333,0.667,0.667,1.333,1,2
	c2,0.667,4,1.333,6,2c0.333,0.667,0.667,1.333,1,2c1.333,0.333,2.667,0.667,4,1c0.333,0.667,0.667,1.333,1,2c0.667,0,1.333,0,2,0
	c0.667,1,1.333,2,2,3c0.667,0,1.333,0,2,0c0.333,0.667,0.667,1.333,1,2c0.667,0,1.333,0,2,0c1,1.333,2,2.667,3,4
	c0.667,0,1.333,0,2,0c2.667,3,5.333,6,8,9c3.333,3,6.667,6,10,9c0,0.667,0,1.333,0,2c1.333,1,2.667,2,4,3c0,0.667,0,1.333,0,2
	c1,0.667,2,1.333,3,2c0,0.667,0,1.333,0,2c0.425,0.632,1.327,0.754,2,2c0.333,0,0.667,0,1,0c0-0.333,0-0.667,0-1
	c2.083-1.697,2.394-3.726,4-6c1-0.667,2-1.333,3-2c0-0.667,0-1.333,0-2c2.333-2,4.667-4,7-6c0-0.667,0-1.333,0-2
	c0.667-0.333,1.333-0.667,2-1c1.333-1.667,2.667-3.333,4-5c0.667,0,1.333,0,2,0c2-2.333,4-4.667,6-7c0.667,0,1.333,0,2,0
	c1-1.333,2-2.667,3-4c0.667,0,1.333,0,2,0c0.333-0.667,0.667-1.333,1-2c0.667,0,1.333,0,2,0c0.333-0.667,0.667-1.333,1-2
	c0.667,0,1.333,0,2,0c0.333-0.667,0.667-1.333,1-2c0.667,0,1.333,0,2,0c0.333-0.667,0.667-1.333,1-2c1.333-0.333,2.667-0.667,4-1
	c0.333-0.667,0.667-1.333,1-2c9.333-4,18.667-8,28-12c11.332-2.667,22.668-5.333,34-8c2.667,0,5.333,0,8,0c0-0.333,0-0.667,0-1
	c3.667,0,7.333,0,11,0c0-0.333,0-0.667,0-1c7.333,0,14.667,0,22,0c20.216-0.001,39.727,1.856,55,7c5.666,1.333,11.334,2.667,17,4
	c0,0.333,0,0.667,0,1c0.667,0,1.333,0,2,0c0,0.333,0,0.667,0,1c1,0,2,0,3,0c0,0.333,0,0.667,0,1c0.667,0,1.333,0,2,0
	c0,0.333,0,0.667,0,1c1,0,2,0,3,0c0,0.333,0,0.667,0,1c1.333,0.333,2.667,0.667,4,1c0,0.333,0,0.667,0,1c0.667,0,1.333,0,2,0
	c0,0.333,0,0.667,0,1c1,0,2,0,3,0c0.333,0.667,0.667,1.333,1,2c0.667,0,1.333,0,2,0c0,0.333,0,0.667,0,1c0.667,0,1.333,0,2,0
	c0,0.333,0,0.667,0,1c0.667,0,1.333,0,2,0c0,0.333,0,0.667,0,1c0.667,0,1.333,0,2,0c0.333,0.667,0.667,1.333,1,2
	c1.333,0.333,2.667,0.667,4,1c0.333,0.667,0.667,1.333,1,2c0.667,0,1.333,0,2,0c0.667,1,1.333,2,2,3c0.667,0,1.333,0,2,0
	c0.667,1,1.333,2,2,3c0.667,0,1.333,0,2,0c1,1.333,2,2.667,3,4c0.667,0,1.333,0,2,0c1.667,2,3.333,4,5,6
	c3.666,3.333,7.333,6.667,11,10c0,0.667,0,1.333,0,2c1.667,1.333,3.333,2.667,5,4c0,0.667,0,1.333,0,2c1,0.667,2,1.333,3,2
	c0,0.667,0,1.333,0,2c0.667,0.333,1.333,0.667,2,1c5,8.999,10,18.001,15,27c0,1,0,2,0,3c0.333,0,0.667,0,1,0c0,0.667,0,1.333,0,2
	c0.333,0,0.667,0,1,0c0.333,2,0.667,4,1,6c0.333,0,0.667,0,1,0c0,0.667,0,1.333,0,2c0.333,0,0.667,0,1,0
	c0.333,2.333,0.667,4.667,1,7c0.333,0,0.667,0,1,0c0,1,0,2,0,3c0.333,0,0.667,0,1,0c0.333,2.333,0.667,4.667,1,7
	c0.333,0,0.667,0,1,0c0.333,3,0.667,6,1,9c0.333,0,0.667,0,1,0c0,1.667,0,3.333,0,5c0.333,0,0.667,0,1,0c0,2,0,4,0,6
	c0.333,0,0.667,0,1,0c0,2.667,0,5.333,0,8c0.333,0,0.667,0,1,0c0.333,8.333,0.667,16.667,1,25c1.798,6.363,1,16.978,1,25
	c0,15.999,0,32.001,0,48c0,10.333,0,20.667,0,31c2,10.333,4,20.667,6,31c3.333,7.666,6.667,15.334,10,23
	c0.667,0.333,1.333,0.667,2,1c0.333,1.333,0.667,2.667,1,4c0.667,0.333,1.333,0.667,2,1c0.333,1,0.667,2,1,3c1,0.667,2,1.333,3,2
	c0,0.667,0,1.333,0,2c0.667,0.333,1.333,0.667,2,1c2,2.333,4,4.667,6,7c0.667,0,1.333,0,2,0c1,1.333,2,2.667,3,4
	c0.667,0,1.333,0,2,0c0.333,0.667,0.667,1.333,1,2c0.667,0,1.333,0,2,0c0.333,0.667,0.667,1.333,1,2c2,0.667,4,1.333,6,2
	c0.333,0.667,0.667,1.333,1,2c1,0,2,0,3,0c0,0.333,0,0.667,0,1c0.667,0,1.333,0,2,0c0,0.333,0,0.667,0,1
	c1.333,0.333,2.667,0.667,4,1c0,0.333,0,0.667,0,1c2,0.333,4,0.667,6,1c0,0.333,0,0.667,0,1c2.333,0.333,4.667,0.667,7,1
	c0,0.333,0,0.667,0,1c8.333,1.333,16.667,2.667,25,4c8.999,0.333,18.001,0.667,27,1c0-0.333,0-0.667,0-1c5,0,10,0,15,0
	c0-0.333,0-0.667,0-1c2.667,0,5.333,0,8,0c0-0.333,0-0.667,0-1c1.667,0,3.333,0,5,0c0-0.333,0-0.667,0-1c1.667,0,3.333,0,5,0
	c0-0.333,0-0.667,0-1c1.333,0,2.667,0,4,0c0-0.333,0-0.667,0-1c1.333,0,2.667,0,4,0c0-0.333,0-0.667,0-1c1,0,2,0,3,0
	c0-0.333,0-0.667,0-1c1,0,2,0,3,0c0-0.333,0-0.667,0-1c1,0,2,0,3,0c0-0.333,0-0.667,0-1c2-0.667,4-1.333,6-2c0-0.333,0-0.667,0-1
	c0.667,0,1.333,0,2,0c0-0.333,0-0.667,0-1c0.667,0,1.333,0,2,0c0-0.333,0-0.667,0-1c2-0.667,4-1.333,6-2
	c0.333-0.667,0.667-1.333,1-2c0.667,0,1.333,0,2,0c0.333-0.667,0.667-1.333,1-2c0.667,0,1.333,0,2,0c1-1.333,2-2.667,3-4
	c0.667,0,1.333,0,2,0c2-2.333,4-4.667,6-7c0.667-0.333,1.333-0.667,2-1c0-0.667,0-1.333,0-2c1.333-1,2.667-2,4-3
	c0-0.667,0-1.333,0-2c0.667-0.333,1.333-0.667,2-1c0-0.667,0-1.333,0-2c0.667-0.333,1.333-0.667,2-1c0.333-1.333,0.667-2.667,1-4
	c0.667-0.333,1.333-0.667,2-1c1-3,2-6,3-9c0.333,0,0.667,0,1,0c0.333-1.333,0.667-2.667,1-4c0.333,0,0.667,0,1,0
	c1-4.333,2-8.667,3-13c7.855-23.403,6-57.733,6-89C916,174.341,916,101.659,916,29z"/>
</svg>
